# xmcd
#
# Track frame offsets:
#	150
#	20030
#	39435
#	58240
#	71787
#	92817
#	109112
#	133480
#	144567
#	161890
#
# Disc length: 2453
#
# Revision: 1
# Processed by: cddbd v1.5.1PL0 Copyright (c) Steve Scherf et al.
# Submitted via: FreeRIP 2.35 
# Normalized: r0:TRMNUM
#
DISCID=9c09930a
DTITLE=Pure Prarie League - The Encore Collection
DYEAR=2004
DGENRE=Country
TTITLE0=Amie
TTITLE1=Lucille Crawfield
TTITLE2=Two Lane Highway
TTITLE3=Dark Colours
TTITLE4=Heart of Her Own
TTITLE5=Feelin' Of Love
TTITLE6=Dance
TTITLE7=Louise (What I Did)
TTITLE8=All The Lonsome Cowboys
TTITLE9=Came Through
EXTD=
EXTT0=
EXTT1=
EXTT2=
EXTT3=
EXTT4=
EXTT5=
EXTT6=
EXTT7=
EXTT8=
EXTT9=
PLAYORDER=
